<?xml version="1.0" encoding="UTF-8"?>
<svg xmlns="http://www.w3.org/2000/svg" width="570" height="125" viewBox="0 0 570 125" fill="none">
  <g clip-path="url(#clip0_79_728)">
    <path d="M42.546 36.9069V28.1068H9.87305V-0.0771484H0.179077V28.1068H0.220093V36.9069H0.179077L0 94.7068C0 107.393 3.56067 116.099 10.682 120.826C14.548 123.393 19.4321 124.744 25.2931 124.926V124.964H41.922V115.559H25.791C22.9871 115.448 20.2447 114.704 17.769 113.383C12.5024 110.393 9.86902 104.11 9.86902 94.5338V36.9088L42.546 36.9069Z" fill="black"></path>
    <path d="M153.979 124.692C144.285 124.692 136.207 122.298 129.744 117.511C123.281 112.723 119.87 106.081 119.511 97.5837C119.152 88.8504 122.384 81.58 129.205 75.7727C136.026 69.9654 147.157 67.0034 162.596 66.8867L194.909 66.7057V58.4487C194.909 50.9087 191.827 45.134 185.664 41.1246C179.501 37.1153 171.871 35.1107 162.776 35.1107C155.847 34.9466 148.981 36.4559 142.759 39.5107C137.074 42.4441 133.633 47.2014 132.436 53.7827L122.742 53.9617C123.025 49.811 124.307 45.7903 126.48 42.2423C128.652 38.6943 131.651 35.7244 135.219 33.5857C142.697 28.861 151.823 26.497 162.596 26.4937C174.562 26.4937 184.525 29.2771 192.486 34.8438C200.447 40.4104 204.426 47.8604 204.424 57.1937V123.259H194.909V98.4836C193.766 100.872 192.414 103.155 190.87 105.307C188.661 108.269 186.231 111.06 183.599 113.655C180.018 117.171 175.737 119.893 171.033 121.644C165.593 123.73 159.805 124.764 153.979 124.692ZM154.517 115.892C165.406 115.892 174.861 111.852 182.882 103.773C186.752 100.011 189.814 95.5001 191.881 90.5154C193.949 85.5307 194.98 80.1768 194.909 74.7806H163.853C151.166 74.9013 142.13 77.2653 136.745 81.8727C131.36 86.48 128.907 91.7756 129.384 97.7596C129.563 100.439 130.372 103.039 131.745 105.347C133.118 107.655 135.015 109.607 137.284 111.045C142.403 114.373 148.414 116.065 154.517 115.896V115.892Z" fill="black"></path>
    <path d="M250.125 123.288L213.503 28.1426H224.274L259.101 120.417L293.928 28.1426H304.699L268.077 123.288H250.125Z" fill="black"></path>
    <path d="M357.791 124.692C344.148 124.692 332.629 119.904 323.234 110.33C314.182 101.027 309.125 88.5544 309.142 75.5744C309.158 62.5944 314.248 50.1351 323.324 40.8557C327.769 36.2158 333.126 32.5447 339.057 30.073C344.988 27.6014 351.366 26.3824 357.791 26.4927C369.754 26.3028 381.306 30.8532 389.926 39.1507C398.716 47.2156 404.214 58.2451 405.364 70.1187C405.837 73.029 405.898 75.9915 405.544 78.9187H319.015C319.191 83.8736 320.353 88.7436 322.434 93.2438C324.515 97.7441 327.472 101.784 331.133 105.128C338.314 111.954 347.885 115.692 357.791 115.541C364.706 115.578 371.512 113.814 377.539 110.424C383.517 107.135 388.53 102.338 392.08 96.5118L401.595 98.1267C397.566 106.111 391.337 112.776 383.643 117.335C375.888 122.166 366.928 124.716 357.791 124.692ZM319.015 70.8357H395.67C394.878 61.2478 390.56 52.2936 383.552 45.7027C380.122 42.3628 376.063 39.7383 371.609 37.9816C367.156 36.2249 362.398 35.371 357.612 35.4698C347.837 35.2673 338.38 38.9469 331.312 45.7027C324.208 52.2433 319.819 61.2129 319.013 70.8357H319.015Z" fill="black"></path>
    <path d="M96.7089 26.1589C91.3655 26.1582 86.0882 27.3396 81.2551 29.6184C76.4221 31.8972 72.153 35.2171 68.7539 39.34V28.1089H58.8799V124.971H68.7539V62.4459H68.783C68.7914 55.0421 71.7363 47.9439 76.9716 42.7086C82.2069 37.4733 89.305 34.5284 96.7089 34.5199C102.905 34.4974 108.93 36.5565 113.816 40.3669L118.943 33.767C112.594 28.8093 104.764 26.1298 96.7089 26.1589Z" fill="black"></path>
    <path d="M449.191 115.559C446.387 115.448 443.645 114.704 441.169 113.383C435.902 110.393 433.269 104.11 433.269 94.5337V-0.0722656H423.575V28.1117H423.616V36.9117H423.575L423.396 94.7117C423.396 107.398 426.957 116.104 434.078 120.831C437.997 123.431 442.946 124.804 448.926 124.951V124.972H465.857V115.559H449.191Z" fill="black"></path>
    <path d="M477.344 -0.0742188L508.644 58.0198H519.069L487.769 -0.0742188H477.344ZM570.114 -0.0742188H559.691L528.391 58.0198H538.817L570.114 -0.0742188ZM477.344 125.486H487.769L519.069 67.3918H508.644L477.344 125.486ZM528.388 67.3918L559.688 125.486H570.115L538.815 67.3918H528.388Z" fill="black"></path>
  </g>
  <defs>
    <clipPath id="clip0_79_728">
      <rect width="570" height="125" fill="white"></rect>
    </clipPath>
  </defs>
</svg>
